<svg xmlns="http://www.w3.org/2000/svg" width="64" height="64" viewBox="0 0 64 64"><!-- Original industrial walking-drill icon. --><g stroke="#251c16" stroke-width="3" stroke-linecap="round" stroke-linejoin="round"><path d="M18 36 9 55H4l8-25M28 42 26 58h-5l1-18M44 36l10 19h5l-9-26" fill="none" stroke-width="4"/><path d="M13 31h38l-5 13H18z" fill="#d7861b"/><path d="M18 31 23 15h19l7 16" fill="#f2a52c"/><path d="M27 18h11v10H27z" fill="#75c4cc" stroke-width="2"/><path d="M21 27h24" fill="none" stroke="#ffe18a" stroke-width="2"/><path d="M43 16 49 9l4 4-5 7" fill="#7a858d"/><path d="M47 27h8l3 9-8 2z" fill="#ef9e21"/><path d="M32 42v12l-5 6h10z" fill="#697883"/><path d="M32 43v15" fill="none" stroke="#b9c4c7" stroke-width="2"/><path d="M27 52h10M26 56h12" fill="none" stroke="#f8d15a" stroke-width="2"/><path d="M30 60 34 60 35 63 29 63z" fill="#c9d0cd" stroke-width="2"/><path d="M15 38 9 42M49 38l7 4" fill="none" stroke="#9aa7a8" stroke-width="2"/></g></svg>
